<?xml version="1.0" encoding="UTF-8"?>
<svg width="512px" height="512px" viewBox="0 0 512 512" version="1.1" xmlns="http://www.w3.org/2000/svg" xmlns:xlink="http://www.w3.org/1999/xlink">
    <!-- Generator: Sketch 42 (36781) - http://www.bohemiancoding.com/sketch -->
    <title>Slice Copy 2</title>
    <desc>Created with Sketch.</desc>
    <defs>
        <radialGradient cx="50%" cy="50%" fx="50%" fy="50%" r="50%" id="radialGradient-1">
            <stop stop-color="#FFEA80" offset="0%"></stop>
            <stop stop-color="#FFE24C" offset="100%"></stop>
        </radialGradient>
        <circle id="path-2" cx="231.5" cy="231.5" r="231.5"></circle>
        <filter x="-50%" y="-50%" width="200%" height="200%" filterUnits="objectBoundingBox" id="filter-3">
            <feOffset dx="0" dy="5" in="SourceAlpha" result="shadowOffsetOuter1"></feOffset>
            <feGaussianBlur stdDeviation="5" in="shadowOffsetOuter1" result="shadowBlurOuter1"></feGaussianBlur>
            <feComposite in="shadowBlurOuter1" in2="SourceAlpha" operator="out" result="shadowBlurOuter1"></feComposite>
            <feColorMatrix values="0 0 0 0 0   0 0 0 0 0   0 0 0 0 0  0 0 0 0.2 0" type="matrix" in="shadowBlurOuter1"></feColorMatrix>
        </filter>
        <mask id="mask-4" maskContentUnits="userSpaceOnUse" maskUnits="objectBoundingBox" x="0" y="0" width="463" height="463" fill="white">
            <use xlink:href="#path-2"></use>
        </mask>
        <filter x="-50%" y="-50%" width="200%" height="200%" filterUnits="objectBoundingBox" id="filter-5">
            <feOffset dx="1" dy="1" in="SourceAlpha" result="shadowOffsetOuter1"></feOffset>
            <feGaussianBlur stdDeviation="5" in="shadowOffsetOuter1" result="shadowBlurOuter1"></feGaussianBlur>
            <feColorMatrix values="0 0 0 0 0   0 0 0 0 0   0 0 0 0 0  0 0 0 0.2 0" type="matrix" in="shadowBlurOuter1" result="shadowMatrixOuter1"></feColorMatrix>
            <feMerge>
                <feMergeNode in="shadowMatrixOuter1"></feMergeNode>
                <feMergeNode in="SourceGraphic"></feMergeNode>
            </feMerge>
        </filter>
        <radialGradient cx="50%" cy="59.4747411%" fx="50%" fy="59.4747411%" r="40.5252589%" id="radialGradient-6">
            <stop stop-color="#9239E6" offset="0%"></stop>
            <stop stop-color="#612699" offset="100%"></stop>
        </radialGradient>
        <path d="M264.841729,91.1213427 C259.310319,91.1213427 254.147669,91.9557919 249.35378,93.6246903 C232.390788,62.7500699 203.258693,41.4716153 169.332709,38.5510431 C175.970402,27.2859789 187.401983,20.1931607 200.308608,20.1931607 C203.258693,20.1931607 205.840018,17.2725885 205.840018,13.9347917 C205.840018,10.5969949 203.258693,7.67642274 200.308608,7.67642274 C184.820659,7.67642274 171.176513,16.0209147 162.326256,28.9548773 C157.163606,16.0209147 147.944589,6.00752434 136.513008,1.00082914 C133.562922,-0.25084466 130.612836,1.41805374 129.137794,4.33862594 C128.031512,7.67642274 129.506554,11.0142195 132.087879,12.6831179 C141.306897,16.8553639 148.68211,25.1998559 152.369717,35.2132463 C152.738478,36.4649201 153.107239,37.2993693 153.475999,38.5510431 C119.550016,41.4716153 90.04916,62.7500699 73.0861681,93.6246903 C68.2922791,91.9557919 63.1296293,91.1213427 57.5982189,91.1213427 C26.2535599,91.1213427 0.809071971,119.90984 0.809071971,155.373931 C0.809071971,190.838022 26.2535599,219.626519 57.5982189,219.626519 C63.1296293,219.626519 68.2922791,218.79207 73.0861681,217.123172 C91.5242028,250.50114 123.975144,272.614044 161.219974,272.614044 C198.464804,272.614044 230.915745,250.50114 249.35378,217.123172 C254.147669,218.79207 259.310319,219.626519 264.841729,219.626519 C296.186388,219.626519 321.630876,190.838022 321.630876,155.373931 C321.630876,119.90984 296.186388,91.1213427 264.841729,91.1213427 Z M43.5853125,200.851412 C28.8348848,200.851412 16.6657818,179.990182 16.6657818,154.122257 C16.6657818,128.254332 28.8348848,107.393102 43.5853125,107.393102 C55.3856548,107.393102 65.3421935,120.327065 69.0298004,138.684947 C70.1360825,143.274418 54.2793727,133.261027 54.2793727,138.684947 C54.2793727,142.857193 70.1360825,162.466749 69.7673218,166.221771 C66.4484756,186.248551 56.1231761,200.851412 43.5853125,200.851412 Z M224.646814,194.593043 C226.859378,199.182514 227.96566,204.606434 227.96566,209.613129 C227.96566,236.315503 198.096044,258.011183 160.851213,258.011183 C123.975144,258.011183 93.736767,236.315503 93.736767,209.613129 C93.736767,204.189209 94.8430491,199.182514 97.0556132,194.593043 C80.8301427,184.579653 70.1360825,164.970097 70.1360825,142.439968 C70.1360825,109.479225 93.736767,83.1940753 122.500101,83.1940753 C137.61929,83.1940753 150.894675,90.2868935 160.482453,101.551958 C170.070231,90.2868935 183.714376,83.1940753 198.464804,83.1940753 C227.596899,83.1940753 250.828823,109.89645 250.828823,142.439968 C251.935105,164.970097 240.872284,184.579653 224.646814,194.593043 Z M280.698439,200.851412 C268.160575,200.851412 257.835276,186.248551 254.88519,166.638995 C254.147669,162.883974 270.37314,143.274418 270.37314,139.102172 C270.37314,133.678252 254.51643,144.108867 255.622712,139.102172 C259.310319,120.744289 269.266858,107.810327 281.0672,107.810327 C295.817628,107.810327 307.98673,128.671557 307.98673,154.539482 C307.61797,179.990182 295.448867,200.851412 280.698439,200.851412 Z" id="path-7"></path>
    </defs>
    <g id="Page-1" stroke="none" stroke-width="1" fill="none" fill-rule="evenodd">
        <g id="movie-monkey-copy-4" transform="translate(24.000000, 25.000000)">
            <g id="Oval-3-Copy-3">
                <use fill="black" fill-opacity="1" filter="url(#filter-3)" xlink:href="#path-2"></use>
                <use stroke="#F3D648" mask="url(#mask-4)" stroke-width="20" fill="url(#radialGradient-1)" fill-rule="evenodd" xlink:href="#path-2"></use>
            </g>
            <g id="Group-3-Copy-3" filter="url(#filter-5)" transform="translate(70.081886, 87.315136)">
                <path d="M21.0772873,107.816484 C30.7886596,107.816484 37.8705733,100.064931 48.0844387,99.2979971 C57.3966871,98.5987631 69.8635719,102.49684 79.2086207,97.9341363 C101.555544,87.0232903 78.8744425,90.1850999 97.2238352,83.8247877 C117.941231,76.6436724 158.138956,67.6432504 176.436075,66.1913261 C208.036657,63.6837373 200.708161,67.8291758 223.874525,81.0390296 C227.972037,83.3755001 232.946423,83.714249 236.695728,86.7072735 C242.020325,90.9578334 244.242534,100.430591 250.539778,102.325574 C293.585294,115.278944 270.64331,91.9967972 291.479303,104.353632 C299.859321,109.323422 292.538585,108.348786 300.801742,116.957253 C302.806019,119.045286 306.291847,118.76946 308.13547,121.039162 C320.645668,136.440582 316.422469,146.554938 310.571499,167.584536 C309.901744,169.991774 306.889756,170.962251 306.274971,173.388199 C303.872117,182.869896 309.63633,195.324823 296.946834,200.623498 C282.284012,206.746162 265.694091,204.754361 250.83609,210.241456 C213.482194,224.036339 242.55183,218.584696 226.467258,233.881709 C224.655223,235.605019 221.558581,234.589785 219.669171,236.203174 C196.137671,256.296996 199.529833,259.7763 165.626377,265.605173 C141.688711,269.720672 115.611561,262.889139 99.9590251,241.049232 C95.3770084,234.655966 92.4661644,226.915147 88.2176525,220.233429 C86.3455534,217.289142 84.6627346,213.547018 81.6617442,212.272738 C74.012874,209.024877 65.5025901,209.398096 57.5635813,207.217103 C53.4998754,206.100728 49.8818664,203.20448 45.7595272,202.409736 C41.4444439,201.577833 36.6410291,204.387402 32.6277664,202.409736 C13.3746227,192.922121 14.0203964,183.484846 11.1764696,165.26952 C8.20594024,146.243305 4.32453419,136.230145 17.8121543,118.040603 L21.0772873,107.816484 Z" id="Path-4-Copy-2" fill="#FFEA7F"></path>
                <ellipse id="Oval-2-Copy-2" stroke="#979797" stroke-width="1.03500002" fill="#FFFFFF" cx="109.164173" cy="139.306461" rx="7.76048626" ry="7.76801827"></ellipse>
                <ellipse id="Oval-2-Copy-3" stroke="#979797" stroke-width="1.03500002" fill="#FFFFFF" cx="199.185814" cy="137.234989" rx="7.76048626" ry="7.76801827"></ellipse>
                <g id="monkey3-copy-2" fill-rule="nonzero">
                    <g id="Group">
                        <g transform="translate(0.396280, 0.000000)">
                            <g id="Shape">
                                <use fill="url(#radialGradient-6)" fill-rule="evenodd" xlink:href="#path-7"></use>
                                <use fill="#333333" fill-rule="evenodd" xlink:href="#path-7"></use>
                            </g>
                            <ellipse id="Oval" fill="#333333" cx="161.219974" cy="164.486907" rx="15.1191885" ry="7.38087432"></ellipse>
                            <path d="M116.231169,125.653855 C105.90587,125.653855 97.0556132,134.14186 97.0556132,144.844128 C97.0556132,155.546396 105.537109,164.034401 116.231169,164.034401 C126.556469,164.034401 135.406725,155.546396 135.406725,144.844128 C135.406725,134.14186 126.925229,125.653855 116.231169,125.653855 Z M108.118434,144.844128 C105.168349,144.844128 102.587024,142.260822 102.587024,139.308472 C102.587024,136.356122 105.168349,133.772816 108.118434,133.772816 C111.06852,133.772816 113.649844,136.356122 113.649844,139.308472 C114.018605,142.260822 111.43728,144.844128 108.118434,144.844128 Z" id="Shape" fill="#333333"></path>
                            <path d="M206.208779,123.439592 C195.883479,123.439592 187.033223,131.927598 187.033223,142.629866 C187.033223,152.96309 195.514719,161.820139 206.208779,161.820139 C216.534078,161.820139 225.384335,153.332133 225.384335,142.629866 C225.015574,131.927598 216.534078,123.439592 206.208779,123.439592 Z M197.727283,142.260822 C194.777197,142.260822 192.195872,139.677516 192.195872,136.725166 C192.195872,133.772816 194.777197,131.18951 197.727283,131.18951 C200.677368,131.18951 203.258693,133.772816 203.258693,136.725166 C203.627454,139.677516 201.046129,142.260822 197.727283,142.260822 Z" id="Shape" fill="#333333"></path>
                            <path d="M113.649844,113.844456 C121.76258,112.737325 128.031512,113.844456 128.400272,110.892106 C128.769033,107.939756 121.025058,103.511232 112.543562,106.832625 C104.062066,109.784975 99.6369381,117.165849 100.005699,117.903937 C99.6369381,119.011068 105.168349,114.582543 113.649844,113.844456 Z" id="Shape" fill="#333333"></path>
                            <path d="M206.577539,113.844456 C214.690275,114.582543 220.590446,119.011068 220.590446,117.903937 C220.590446,117.165849 216.534078,109.784975 208.052582,106.832625 C199.571086,103.511232 191.827112,107.939756 192.195872,110.892106 C192.195872,113.844456 198.464804,112.737325 206.577539,113.844456 Z" id="Shape" fill="#333333"></path>
                            <path d="M195.883479,206.557891 C195.883479,220.950596 180.39553,232.390951 161.219974,232.390951 C142.044418,232.390951 126.556469,220.581552 126.556469,206.557891 C126.556469,192.165186 142.044418,206.557891 161.219974,206.557891 C180.39553,206.557891 195.883479,192.165186 195.883479,206.557891 Z" id="Shape" fill="#993D3D"></path>
                        </g>
                    </g>
                </g>
            </g>
        </g>
    </g>
</svg>